<mxfile host="app.diagrams.net" modified="2023-11-15T16:11:07.137Z" agent="Mozilla/5.0 (Macintosh; Intel Mac OS X 10_15_7) AppleWebKit/537.36 (KHTML, like Gecko) Chrome/119.0.0.0 Safari/537.36" etag="c6KWXoG-n6LrGhka9a6n" version="22.1.1" type="github">
  <diagram name="第 1 页" id="c05ljbwLn1tOAefsSit8">
    <mxGraphModel dx="954" dy="640" grid="1" gridSize="10" guides="1" tooltips="1" connect="1" arrows="1" fold="1" page="1" pageScale="1" pageWidth="827" pageHeight="1169" math="0" shadow="0">
      <root>
        <mxCell id="0" />
        <mxCell id="1" parent="0" />
        <mxCell id="MWGiglS5Kl86DxDhR967-1" value="" style="endArrow=classic;html=1;rounded=0;strokeColor=default;movable=0;resizable=0;rotatable=0;deletable=0;editable=0;locked=1;connectable=0;" edge="1" parent="1">
          <mxGeometry width="50" height="50" relative="1" as="geometry">
            <mxPoint x="200" y="200" as="sourcePoint" />
            <mxPoint x="720" y="200" as="targetPoint" />
          </mxGeometry>
        </mxCell>
        <mxCell id="MWGiglS5Kl86DxDhR967-2" value="渲染主线程" style="rounded=0;whiteSpace=wrap;html=1;fontSize=18;fillColor=#d5e8d4;strokeColor=#82b366;" vertex="1" parent="1">
          <mxGeometry x="80" y="170" width="120" height="60" as="geometry" />
        </mxCell>
        <mxCell id="MWGiglS5Kl86DxDhR967-3" value="parse" style="rounded=0;whiteSpace=wrap;html=1;fontSize=16;" vertex="1" parent="1">
          <mxGeometry x="210" y="185" width="50" height="30" as="geometry" />
        </mxCell>
        <mxCell id="MWGiglS5Kl86DxDhR967-9" value="合成线程" style="rounded=0;whiteSpace=wrap;html=1;fontSize=18;fillColor=#ffe6cc;strokeColor=#d79b00;" vertex="1" parent="1">
          <mxGeometry x="80" y="270" width="120" height="60" as="geometry" />
        </mxCell>
        <mxCell id="MWGiglS5Kl86DxDhR967-10" value="" style="endArrow=classic;html=1;rounded=0;strokeColor=default;movable=0;resizable=0;rotatable=0;deletable=0;editable=0;locked=1;connectable=0;" edge="1" parent="1">
          <mxGeometry width="50" height="50" relative="1" as="geometry">
            <mxPoint x="200" y="299.5" as="sourcePoint" />
            <mxPoint x="720" y="300" as="targetPoint" />
          </mxGeometry>
        </mxCell>
        <mxCell id="MWGiglS5Kl86DxDhR967-12" value="style" style="rounded=0;whiteSpace=wrap;html=1;fontSize=16;fillColor=#d5e8d4;strokeColor=#82b366;" vertex="1" parent="1">
          <mxGeometry x="270" y="185" width="50" height="30" as="geometry" />
        </mxCell>
        <mxCell id="MWGiglS5Kl86DxDhR967-13" value="layout" style="rounded=0;whiteSpace=wrap;html=1;fontSize=16;fillColor=#f8cecc;strokeColor=#b85450;" vertex="1" parent="1">
          <mxGeometry x="330" y="185" width="50" height="30" as="geometry" />
        </mxCell>
        <mxCell id="MWGiglS5Kl86DxDhR967-14" value="layer" style="rounded=0;whiteSpace=wrap;html=1;fontSize=16;fillColor=#d5e8d4;strokeColor=#82b366;" vertex="1" parent="1">
          <mxGeometry x="390" y="185" width="50" height="30" as="geometry" />
        </mxCell>
        <mxCell id="MWGiglS5Kl86DxDhR967-20" style="edgeStyle=orthogonalEdgeStyle;orthogonalLoop=1;jettySize=auto;html=1;entryX=0;entryY=0.5;entryDx=0;entryDy=0;dashed=1;curved=1;strokeColor=#808080;" edge="1" parent="1" source="MWGiglS5Kl86DxDhR967-16" target="MWGiglS5Kl86DxDhR967-17">
          <mxGeometry relative="1" as="geometry" />
        </mxCell>
        <mxCell id="MWGiglS5Kl86DxDhR967-16" value="paint" style="rounded=0;whiteSpace=wrap;html=1;fontSize=16;fillColor=#d5e8d4;strokeColor=#82b366;" vertex="1" parent="1">
          <mxGeometry x="450" y="185" width="50" height="30" as="geometry" />
        </mxCell>
        <mxCell id="MWGiglS5Kl86DxDhR967-17" value="tiling" style="rounded=0;whiteSpace=wrap;html=1;fontSize=16;fillColor=#d5e8d4;strokeColor=#82b366;" vertex="1" parent="1">
          <mxGeometry x="520" y="285" width="50" height="30" as="geometry" />
        </mxCell>
        <mxCell id="MWGiglS5Kl86DxDhR967-18" value="raster" style="rounded=0;whiteSpace=wrap;html=1;fontSize=16;fillColor=#d5e8d4;strokeColor=#82b366;" vertex="1" parent="1">
          <mxGeometry x="580" y="285" width="50" height="30" as="geometry" />
        </mxCell>
        <mxCell id="MWGiglS5Kl86DxDhR967-19" value="draw" style="rounded=0;whiteSpace=wrap;html=1;fontSize=16;fillColor=#d5e8d4;strokeColor=#82b366;" vertex="1" parent="1">
          <mxGeometry x="640" y="285" width="50" height="30" as="geometry" />
        </mxCell>
      </root>
    </mxGraphModel>
  </diagram>
</mxfile>
